<svg xmlns="http://www.w3.org/2000/svg" width="420" height="420" viewBox="0 0 420 420"><defs><style>.cls-1{fill:#c1272d;}.cls-2{fill:#f15a24;}.cls-3{fill:#fcd821;}.cls-4{fill:#603813;}</style></defs><title>play knap</title><g id="Layer_1" data-name="Layer 1"><ellipse class="cls-1" cx="206.5" cy="90.71" rx="28.5" ry="84.21"/><ellipse class="cls-1" cx="205.5" cy="328.29" rx="28.5" ry="84.21"/><ellipse class="cls-1" cx="329" cy="212.51" rx="84" ry="28.57"/><ellipse class="cls-1" cx="91" cy="210.5" rx="84" ry="28.57"/><ellipse class="cls-1" cx="143" cy="103.24" rx="28.52" ry="84.16" transform="translate(-32.44 85.1) rotate(-29.92)"/><ellipse class="cls-1" cx="267" cy="318.77" rx="28.52" ry="84.16" transform="translate(-123.42 175.68) rotate(-29.92)"/><ellipse class="cls-1" cx="105" cy="151.36" rx="28.55" ry="84.05" transform="translate(-78.6 166.36) rotate(-59.92)"/><ellipse class="cls-1" cx="317" cy="277.67" rx="28.55" ry="84.05" transform="translate(-82.15 412.83) rotate(-59.92)"/><ellipse class="cls-1" cx="105" cy="268.65" rx="84.05" ry="28.55" transform="translate(-120.5 88.8) rotate(-30.08)"/><ellipse class="cls-1" cx="317" cy="146.34" rx="84.05" ry="28.55" transform="translate(-30.66 178.57) rotate(-30.08)"/><ellipse class="cls-1" cx="269" cy="103.24" rx="84.16" ry="28.52" transform="translate(45.34 284.88) rotate(-60.08)"/><ellipse class="cls-1" cx="140" cy="314.76" rx="84.16" ry="28.52" transform="translate(-202.64 279.08) rotate(-60.08)"/><ellipse class="cls-2" cx="233.5" cy="103.74" rx="65.15" ry="21.5" transform="translate(73.19 302.7) rotate(-75.1)"/><ellipse class="cls-2" cx="176.5" cy="316.26" rx="65.15" ry="21.5" transform="translate(-174.52 405.48) rotate(-75.1)"/><ellipse class="cls-2" cx="132.53" cy="133.59" rx="21.53" ry="65.08" transform="translate(-55.64 132.56) rotate(-44.91)"/><ellipse class="cls-2" cx="283.53" cy="287.97" rx="21.53" ry="65.08" transform="translate(-120.58 284.21) rotate(-44.91)"/><ellipse class="cls-2" cx="177.53" cy="100.51" rx="21.5" ry="65.15" transform="translate(-19.68 48.3) rotate(-14.69)"/><ellipse class="cls-2" cx="233.53" cy="314.04" rx="21.5" ry="65.15" transform="translate(-71.99 69.47) rotate(-14.69)"/><ellipse class="cls-2" cx="313.53" cy="238.85" rx="21.55" ry="65.01" transform="matrix(0.26, -0.97, 0.97, 0.26, 1.71, 479.93)"/><ellipse class="cls-2" cx="108.53" cy="183.72" rx="21.55" ry="65.02" transform="matrix(0.31, -0.95, 0.95, 0.31, -99.77, 229.98)"/><ellipse class="cls-2" cx="316.53" cy="182.71" rx="65.01" ry="21.55" transform="translate(-36.13 86.76) rotate(-14.77)"/><ellipse class="cls-2" cx="105.53" cy="238.85" rx="65.01" ry="21.55" transform="translate(-57.42 34.81) rotate(-14.77)"/><ellipse class="cls-2" cx="285.53" cy="130.58" rx="65.08" ry="21.53" transform="translate(-8.54 240.6) rotate(-45.09)"/><ellipse class="cls-2" cx="126.53" cy="287.97" rx="65.08" ry="21.53" transform="translate(-166.74 174.27) rotate(-45.09)"/><ellipse class="cls-3" cx="207" cy="209" rx="56" ry="56.14"/><polygon class="cls-4" points="185 174.91 185 244.09 241 209 185 174.91"/></g></svg>