<svg id="Layer_1" data-name="Layer 1" xmlns="http://www.w3.org/2000/svg" width="1920" height="1080" viewBox="0 0 1920 1080"><defs><style>.cls-1{fill:#e0d24f;}.cls-2{fill:#fcee21;}.cls-3{fill:none;stroke:#fffcee;stroke-linecap:round;stroke-miterlimit:10;stroke-width:17px;}.cls-3,.cls-4{opacity:0.46;}.cls-4{fill:#fffcee;}</style></defs><title>titel</title><path class="cls-1" d="M141.2181,521.3242c-7.4538,1.1652-11.2478-1.57-12.4248-8.9791q-2.7459-17.3338-5.4907-34.6675c-1.1753-7.4069,1.6245-11.1958,9.164-12.3751q40.5533-6.3349,81.1795-12.0246c5.1335-.7183,7.32-4.9558,6.6609-9.7118-.9444-6.834-4.0445-9.1325-9.2822-9.0049q-23.1727.0642-46.3787.3379c-29.1033.0965-49.48-8.7746-54.7656-41.9658q-2.4639-15.5565-4.928-31.1131c-5.4006-33.7487,15.6033-56.0153,56.0986-61.9424q43.5576-6.3564,87.19-11.992c7.7925-1.0051,11.6387,1.8376,12.5825,9.2768q2.2493,17.7078,4.4983,35.4156c.9431,7.4411-2.0364,11.1416-9.74,12.1357q-35.919,4.6393-71.7873,9.7726c-5.2334.7493-7.7984,4.7608-7.0237,10.1034.7761,5.3449,4.3591,8.4615,9.6587,8.31q23.2815-.3013,46.5322-.3943c29.408.2966,49.9109,9.88,54.0423,43.2164q1.9515,15.6286,3.903,31.2572c4.19,33.9635-16.8547,55.2362-55.3527,60.5051Q188.3388,513.9636,141.2181,521.3242Z"/><path class="cls-1" d="M340.8441,494.1415c-7.4849.8709-11.165-2.0118-12.0474-9.4617q-11.4261-96.5266-22.8523-193.0531c-.8833-7.4465,2.16-11.1351,9.9619-12.0428q16.2248-1.8858,32.4583-3.6722c8.1169-.8925,13.3435.659,19.2793,6.06q33.7719,29.8908,66.8166,60.2028-3.0219-31.8066-6.0454-63.6136c-.7109-7.465,2.4126-11.0817,10.23-11.8091q23.4444-2.178,46.9021-4.1491c7.82-.6561,11.53,2.356,12.1416,9.83q7.9347,96.876,15.8689,193.7521c.6108,7.477-2.4224,11.0321-9.9236,11.6612q-22.511,1.8916-45.0083,3.9816c-7.4954.6977-11.1082-2.27-11.8191-9.7377q-1.7462-18.3675-3.4912-36.7348-28.8186-28.4514-58.2388-56.58,5.1779,49.229,10.355,98.4578c.781,7.4607-2.1682,11.0852-9.6577,11.8875Q363.3006,491.5314,340.8441,494.1415Z"/><path class="cls-1" d="M566.6808,472.9388c-7.5076.5393-11.052-2.5039-11.606-9.9855q-7.1507-96.937-14.3-193.8742c-.5525-7.4785,2.6462-11.0282,10.4724-11.59q72.6148-5.2017,145.3227-8.4242c7.836-.3461,11.4229,2.8105,11.7363,10.3025q.7405,17.5347,1.4805,35.0693c.314,7.4947-2.9565,10.9309-10.706,11.2732q-42.7853,1.8965-85.5459,4.4858.6983,11.5292,1.3962,23.0583,30.0777-1.8216,60.17-3.2985c7.7158-.3777,11.27,2.7632,11.6181,10.2542q.753,16.0326,1.5059,32.0652c.3491,7.4931-2.854,10.9419-10.4912,11.316q-29.7853,1.462-59.5569,3.2649.7792,12.8761,1.56,25.7526,41.9307-2.5394,83.8874-4.3989c7.6035-.3358,11.085,2.8257,11.4,10.3176q.7405,17.534,1.4805,35.0683c.3159,7.4955-2.8511,10.9271-10.37,11.26Q636.37,467.9471,566.6808,472.9388Z"/><path class="cls-1" d="M802.9845,461.4776q-22.1133.5622-44.2227,1.315c-7.521.2571-10.9429-2.9165-11.2182-10.4136q-1.4319-39.574-2.8624-79.1483c-.4291-11.9906,2.6871-27.1187,10.3116-48.3913q12.2841-34.4856,24.9175-68.9135c2.3046-6.9682,7.2353-10.1133,15.7041-10.3322q42.1685-1.0869,84.3466-1.5085c8.15-.0808,13.1993,2.8851,15.7491,9.7664q13.856,33.953,27.3652,67.9769c8.3848,20.9858,12.0381,35.9924,12.0366,47.9909q-.0124,39.6-.0259,79.2c-.0034,7.5024-3.3159,10.7966-10.8364,10.8087q-22.72.0405-45.44.2823c-8.1275.0876-11.7759-3.16-11.8755-10.6615q-.2718-20.9982-.543-41.9963-26.9055.3477-53.8056.9748.4891,20.9943.979,41.9885C813.7384,457.9159,810.5069,461.2872,802.9845,461.4776Zm11.3994-107.7065q24.1143-.5478,48.2295-.8738-7.5279-22.7007-15.18-45.3794c-1.6094-3.5741-3.4951-5.0424-5.9766-5q-3.8766.0673-7.7539.14c-2.4829.0467-4.3149,1.5833-5.7915,5.213Q821.085,330.8126,814.3839,353.7711Z"/><path class="cls-1" d="M982.9273,460.0586c-7.5214-.0714-10.8037-3.3913-10.7514-10.8935q.7325-97.1976,1.4643-194.3953c.0542-7.4987,3.5308-10.7774,11.37-10.703q24.3031.2343,48.6044.69c7.8414.1481,11.22,3.5241,11.0621,11.0213q-.7192,34.493-1.438,68.9858,6.1786.1287,12.3545.2721,16.7168-34.5721,33.8525-69.037c3.3394-7.1048,7.811-9.6759,15.9639-9.4149q24.1377.7764,48.27,1.771c7.21.2985,9.56,4.0068,6.4741,10.18q-17.4375,34.2408-34.46,68.5934c23.1347,2.0492,37.2646,18.3152,36.1909,42.2845q-1.8486,42.26-3.6968,84.52c-.3359,7.4947-3.7783,10.6424-11.2979,10.3283q-23.1568-.9638-46.3188-1.7185c-7.5186-.2437-10.7266-3.6384-10.5015-11.1371q.8907-29.2364,1.7813-58.4727c.2026-6.5971-3.0493-10.3-9.4644-10.4842q-20.1628-.5763-40.3291-.9968-.7155,34.3425-1.4316,68.6851c-.1587,7.5-3.5337,10.7262-11.0571,10.5841Q1006.2489,460.2835,982.9273,460.0586Z"/><path class="cls-1" d="M1207.3189,467.1327c-7.5122-.4-10.6508-3.8611-10.2685-11.3534q4.9819-97.0728,9.9634-194.1454c.3808-7.4891,4.0009-10.613,11.8315-10.1954q47.9276,2.5612,95.8184,5.9832c57.0342,4.1632,71.8613,29.474,68.8608,64.0785q-1.6334,19.1305-3.2671,38.2611c-3.0137,34.7339-21.4326,56.6975-76.67,52.6666q-17.4741-1.2486-34.9546-2.3792-1.6062,24.8478-3.2139,49.6958c-.4824,7.4861-4.0039,10.561-11.5141,10.09Q1230.6168,468.3777,1207.3189,467.1327Zm64.1856-111.012q13.8222.8925,27.6416,1.8579c11.9741.84,14.93-5.8509,15.4976-13.6332q.5755-7.9293,1.1518-15.8586c.5664-7.7761-1.4092-14.85-13.4922-15.6987q-13.938-.9738-27.88-1.8739Q1272.9633,333.5173,1271.5045,356.1207Z"/><path class="cls-1" d="M1397.5006,469.9971q1.6105-17.7772,3.2207-35.5545c.6748-7.4687,4.3086-10.4567,11.8945-9.7549q15.0154,1.3921,30.0215,2.8718,4.9453-50.1572,9.89-100.3142-15.3-1.5082-30.6049-2.9275c-7.7286-.7153-10.834-4.307-10.1573-11.7771q1.6377-18.0757,3.2749-36.1516c.6753-7.4685,4.4156-10.4482,12.2281-9.7248q66.5822,6.1738,133.0366,14.0157c7.8.9218,10.8364,4.6155,9.9414,12.06q-2.1651,18.02-4.3306,36.04c-.895,7.4475-4.6792,10.3121-12.3969,9.4008q-14.9664-1.7662-29.941-3.447-5.62,50.0858-11.2431,100.1715,14.6888,1.6488,29.3706,3.3814c7.5708.8947,10.5024,4.5747,9.6079,12.02q-2.1285,17.7225-4.2588,35.4451c-.8955,7.4488-4.584,10.3242-12.0649,9.44q-63.7662-7.5255-127.6636-13.45C1399.8263,481.05,1396.8233,477.4691,1397.5006,469.9971Z"/><path class="cls-1" d="M1652.8106,510.4824c-50.122-7.0474-71.0263-29.16-65.8339-70.582q5.8689-46.2795,11.74-92.5591c5.2183-41.6278,32.0073-58.0894,84.3667-50.7288q37.9754,5.3752,75.8892,11.2979c7.7695,1.2146,10.6718,5.0207,9.4975,12.427q-2.84,17.9265-5.6787,35.8528c-1.18,7.4086-5.0674,10.1284-12.7554,8.9272q-30.8936-4.8262-61.8305-9.2849c-12.9278-1.8612-19.4522,2.0836-20.8662,12.1817q-4.9659,35.353-9.9322,70.7061c-1.3735,9.8071,3.7407,15.0577,16.419,16.8818q30.3456,4.3738,60.6518,9.108c7.5376,1.1788,10.3443,4.9677,9.166,12.3743q-2.7927,17.63-5.5849,35.2607c-1.1753,7.4093-4.9722,10.1444-12.4248,8.9791Q1689.2521,515.6406,1652.8106,510.4824Z"/><path class="cls-2" d="M127.4251,519.9551c-7.4536,1.165-11.2509-1.57-12.4245-8.9782q-2.7455-17.3342-5.491-34.6684c-1.1741-7.4063,1.6238-11.1955,9.1643-12.3741q40.5543-6.3351,81.1792-12.0246c5.135-.7186,7.32-4.9569,6.6609-9.7129-.9453-6.8336-4.0444-9.1333-9.2822-9.0048q-23.1727.0642-46.3787.3378c-29.1037.098-49.4792-8.7736-54.7656-41.9657q-2.4639-15.5565-4.928-31.1131c-5.4013-33.7477,15.603-56.0153,56.0987-61.9424q43.5575-6.3564,87.19-11.992c7.7915-1.0053,11.64,1.8374,12.5826,9.2768q2.25,17.7078,4.4982,35.4156c.9441,7.4425-2.0344,11.1413-9.74,12.1357q-35.9187,4.6393-71.7874,9.7725c-5.2356.75-7.7971,4.76-7.0237,10.1035.7766,5.3448,4.36,8.4615,9.6587,8.31q23.2815-.3013,46.5323-.3942c29.413.2966,49.9082,9.8808,54.0422,43.2164q1.9522,15.6291,3.9031,31.2581c4.1836,33.9626-16.8531,55.235-55.3528,60.5041Q174.5452,512.5947,127.4251,519.9551Z"/><path class="cls-2" d="M327.0511,492.7724c-7.4844.8708-11.165-2.0121-12.0473-9.4607q-11.4263-96.5271-22.8523-193.0541c-.8828-7.4466,2.1591-11.1349,9.9619-12.0428q16.2249-1.8858,32.4582-3.6722c8.1182-.8919,13.3443.6591,19.2793,6.06q33.772,29.89,66.8167,60.2028-3.0228-31.8068-6.0454-63.6136c-.7124-7.4651,2.4121-11.0817,10.23-11.8091q23.4444-2.1782,46.9021-4.1492c7.8223-.6562,11.5332,2.3561,12.1416,9.83q7.9347,96.8766,15.8689,193.7531c.6116,7.4762-2.4192,11.0309-9.9236,11.66q-22.511,1.8917-45.0083,3.9817c-7.4976.6975-11.1084-2.27-11.8191-9.7368q-1.7454-18.3674-3.491-36.7348-28.82-28.4518-58.239-56.5812,5.1779,49.2294,10.355,98.4587c.782,7.46-2.17,11.084-9.6577,11.8866Q349.5077,490.1623,327.0511,492.7724Z"/><path class="cls-2" d="M552.8878,471.57c-7.5042.5395-11.05-2.504-11.606-9.9845q-7.15-96.9376-14.3-193.8753c-.5535-7.4786,2.6453-11.0284,10.4724-11.59q72.6153-5.2017,145.3228-8.4242c7.833-.3463,11.4209,2.81,11.7363,10.3025q.74,17.5347,1.48,35.0693c.315,7.4946-2.9555,10.9306-10.706,11.2731q-42.7851,1.8966-85.5459,4.4859.6984,11.5292,1.3962,23.0582,30.0777-1.8215,60.17-3.2985c7.7158-.3777,11.2676,2.7638,11.6182,10.2542q.7529,16.0326,1.5058,32.0652c.3531,7.4928-2.853,10.9422-10.4912,11.3161q-29.7853,1.462-59.5569,3.2649.78,12.8767,1.56,25.7535,41.93-2.5392,83.8875-4.3989c7.6005-.3353,11.0888,2.8242,11.4,10.3166q.7405,17.5347,1.4805,35.0693c.3159,7.4946-2.855,10.927-10.37,11.2585Q622.5772,466.5779,552.8878,471.57Z"/><path class="cls-2" d="M789.1915,460.1084q-22.1133.5623-44.2227,1.315c-7.5151.2572-10.9467-2.9164-11.2182-10.4126q-1.4319-39.5747-2.8623-79.1492c-.4307-11.9911,2.6846-27.1187,10.3115-48.39q12.2843-34.4861,24.9175-68.9144c2.3032-6.968,7.24-10.1132,15.7041-10.3322q42.1685-1.0869,84.3467-1.5085c8.1528-.0807,13.1948,2.8848,15.749,9.7664q13.856,33.9534,27.3652,67.9778c8.38,20.9846,12.0357,35.9917,12.0366,47.99q-.0124,39.6-.0258,79.201c-.0054,7.5012-3.312,10.7952-10.8365,10.8078q-22.7211.04-45.44.2823c-8.1211.0881-11.7783-3.16-11.8755-10.6606q-.2717-20.9982-.5429-41.9963-26.9049.3478-53.8057.9748.4893,20.9943.979,41.9886C799.9469,456.5467,796.7115,459.9186,789.1915,460.1084ZM800.5909,352.402q24.1135-.5479,48.2295-.8738-7.5277-22.7-15.18-45.3785c-1.6064-3.575-3.4951-5.0436-5.9765-5.0007q-3.8767.0673-7.7539.14c-2.482.0467-4.312,1.5832-5.7915,5.214Q807.2921,329.4438,800.5909,352.402Z"/><path class="cls-2" d="M969.1344,458.6894c-7.5215-.0714-10.8076-3.3916-10.7515-10.8925q.7325-97.1982,1.4644-194.3963c.0551-7.4985,3.53-10.7775,11.37-10.703q24.3031.2345,48.6045.69c7.84.1481,11.2187,3.5238,11.062,11.0213q-.7185,34.4928-1.438,68.9858,6.178.1287,12.3545.272,16.7167-34.572,33.8525-69.037c3.3418-7.1049,7.8125-9.6762,15.9639-9.4149q24.1377.7766,48.2695,1.7711c7.21.2988,9.5586,4.0067,6.4741,10.18q-17.4375,34.2407-34.46,68.5934c23.1348,2.05,37.2627,18.3144,36.1909,42.2845q-1.8486,42.26-3.6968,84.5205c-.3325,7.494-3.78,10.6417-11.2978,10.3274q-23.157-.9638-46.3189-1.7185c-7.5175-.2437-10.7265-3.6386-10.5014-11.1362q.8906-29.237,1.7812-58.4737c.2022-6.5968-3.0488-10.3-9.4643-10.4841q-20.1628-.5765-40.3291-.9968-.7157,34.3429-1.4317,68.6861c-.1577,7.4994-3.5337,10.7249-11.0571,10.583Q992.4567,458.9144,969.1344,458.6894Z"/><path class="cls-2" d="M1193.526,465.7635c-7.5132-.4-10.6509-3.8612-10.2686-11.3524q4.9812-97.0731,9.9634-194.1463c.3848-7.4892,3.9971-10.6128,11.8315-10.1954q47.9283,2.5611,95.8184,5.9831c57.0313,4.1631,71.8623,29.4742,68.8608,64.08q-1.6332,19.1306-3.267,38.261c-3.004,34.7326-21.4366,56.6968-76.67,52.6657Q1272.32,409.81,1254.84,408.68q-1.6062,24.8485-3.2138,49.6968c-.4824,7.4851-4.003,10.56-11.5142,10.0891Q1216.8245,467.0086,1193.526,465.7635Zm64.1855-111.011q13.8224.8927,27.6416,1.8579c11.9693.8414,14.93-5.8514,15.4976-13.6342q.5757-7.9292,1.1518-15.8585c.5694-7.7752-1.41-14.8488-13.4921-15.6978q-13.9374-.9738-27.88-1.8739Q1259.17,332.1492,1257.7115,354.7525Z"/><path class="cls-2" d="M1383.7076,468.6289q1.6106-17.7777,3.2207-35.5554c.6792-7.4682,4.3091-10.4574,11.8946-9.7549q15.0146,1.3921,30.0214,2.8717,4.9454-50.157,9.89-100.3142-15.3-1.5082-30.605-2.9275c-7.7256-.7156-10.834-4.3056-10.1572-11.776q1.6377-18.0764,3.2749-36.1527c.6753-7.4686,4.4106-10.4485,12.228-9.7247q66.5816,6.1737,133.0366,14.0157c7.8.9216,10.8379,4.6153,9.9414,12.06q-2.1657,18.0207-4.3305,36.0415c-.897,7.4475-4.6851,10.3112-12.397,9.4q-14.9657-1.7664-29.9409-3.447-5.6214,50.0856-11.2432,100.1715,14.6895,1.6488,29.3706,3.3814c7.5689.8945,10.5024,4.5745,9.6079,12.02q-2.1283,17.7229-4.2588,35.4461c-.8969,7.4474-4.5825,10.3236-12.0649,9.4394q-63.7662-7.5255-127.6636-13.45C1386.0343,479.6809,1383.0333,476.1,1383.7076,468.6289Z"/><path class="cls-2" d="M1639.0177,509.1133c-50.1255-7.0474-71.021-29.16-65.834-70.581q5.87-46.28,11.74-92.5591c5.2159-41.6286,32.0069-58.0908,84.3672-50.73q37.9746,5.3754,75.8892,11.298c7.77,1.2146,10.67,5.021,9.4975,12.4269q-2.84,17.927-5.6787,35.8539c-1.1743,7.4077-5.0688,10.1276-12.7553,8.9262q-30.8943-4.8261-61.8306-9.2849c-12.9346-1.8609-19.4512,2.0833-20.8662,12.1817q-4.9666,35.3535-9.9326,70.707c-1.3736,9.8066,3.7426,15.0567,16.4194,16.8809q30.3457,4.3739,60.6519,9.108c7.539,1.1792,10.3418,4.9682,9.166,12.3743q-2.7927,17.6308-5.585,35.2616c-1.1758,7.4085-4.9717,10.1436-12.4248,8.9782Q1675.4583,514.2715,1639.0177,509.1133Z"/><path class="cls-3" d="M110,356.8067c0-29.9964,3.0514-33.0478,33.0477-33.0478"/><path class="cls-3" d="M543.3512,295.5727c0-9.8558-3.1078-15.9487-.3111-19.7842,3.9073-5.3588,15.8759-6.2448,33.3588-6.2448"/><path class="cls-4" d="M972.1853,452.3h0c-3.812,0-6.931-3.8362-6.931-8.5249V404.0178c0-4.6887,3.119-8.5249,6.931-8.5249h0c3.812,0,6.931,3.8362,6.931,8.5249v39.7575C979.1163,448.464,975.9973,452.3,972.1853,452.3Z"/><path class="cls-4" d="M1410.0315,312.7144h0c-3.7886-.4225-6.5953-3.3946-6.2373-6.6047l3.0359-27.22c.358-3.21,3.7506-5.4907,7.5392-5.0682h0c3.7885.4226,6.5953,3.3947,6.2373,6.6048l-3.0359,27.22C1417.2127,310.8563,1413.82,313.137,1410.0315,312.7144Z"/><path class="cls-3" d="M1204.2971,285.6053c.2394-9.8529-.7193-15.02,2.17-18.786,4.0364-5.2622,6.0229-1.8572,23.5007-1.4324"/></svg>
